<?xml version="1.0" encoding="utf-8"?>
<!-- Generator: Adobe Illustrator 17.0.0, SVG Export Plug-In . SVG Version: 6.00 Build 0)  -->
<!DOCTYPE svg PUBLIC "-//W3C//DTD SVG 1.1//EN" "http://www.w3.org/Graphics/SVG/1.1/DTD/svg11.dtd">
<svg version="1.1" id="logo" xmlns="http://www.w3.org/2000/svg" xmlns:xlink="http://www.w3.org/1999/xlink" x="0px" y="0px"
	 width="60px" height="60px" viewBox="0 0 60 60" enable-background="new 0 0 60 60" xml:space="preserve">
<path fill="#EC1B23" d="M31.118,4.765c-3.851,0-7.516,0.793-10.843,2.223c-1.364-0.179-4.031-1.12-3.974-5.748
	C12.92,3.75,12.82,5.439,12.82,5.439s-1.88-2.36-1.913-5.17C7.72,3.275,6.933,8.33,6.933,8.33s-4.05,1.942-5.533,3.866
	c0,0,4.785-0.668,5.916,6.017c0,0-0.048,0.194-0.128,0.516c-2.26,3.992-3.551,8.604-3.551,13.519
	c0,15.178,12.304,27.483,27.483,27.483c15.178,0,27.483-12.304,27.483-27.483S46.296,4.765,31.118,4.765z"/>
</svg>
